<mxfile host="app.diagrams.net" agent="Mozilla/5.0 (Windows NT 10.0; Win64; x64) AppleWebKit/537.36 (KHTML, like Gecko) Chrome/130.0.0.0 Safari/537.36" version="24.8.6">
  <diagram name="Page-1" id="nHwVg09_71mfUpFp6saT">
    <mxGraphModel dx="712" dy="1187" grid="0" gridSize="10" guides="1" tooltips="1" connect="1" arrows="1" fold="1" page="0" pageScale="1" pageWidth="850" pageHeight="1100" math="0" shadow="0">
      <root>
        <mxCell id="0" />
        <mxCell id="1" parent="0" />
        <mxCell id="OhggnpwWC3U-Aos0IUR1-8" style="edgeStyle=none;curved=1;rounded=0;orthogonalLoop=1;jettySize=auto;html=1;exitX=0.5;exitY=1;exitDx=0;exitDy=0;exitPerimeter=0;entryX=0.5;entryY=0;entryDx=0;entryDy=0;fontSize=12;startSize=8;endSize=8;" edge="1" parent="1" source="OhggnpwWC3U-Aos0IUR1-1" target="OhggnpwWC3U-Aos0IUR1-3">
          <mxGeometry relative="1" as="geometry" />
        </mxCell>
        <mxCell id="OhggnpwWC3U-Aos0IUR1-1" value="&lt;i&gt;START&lt;/i&gt;" style="strokeWidth=2;html=1;shape=mxgraph.flowchart.terminator;whiteSpace=wrap;" vertex="1" parent="1">
          <mxGeometry x="76" y="-33" width="100" height="60" as="geometry" />
        </mxCell>
        <mxCell id="OhggnpwWC3U-Aos0IUR1-2" value="&lt;i&gt;END&lt;/i&gt;" style="strokeWidth=2;html=1;shape=mxgraph.flowchart.terminator;whiteSpace=wrap;" vertex="1" parent="1">
          <mxGeometry x="76" y="489" width="100" height="60" as="geometry" />
        </mxCell>
        <mxCell id="OhggnpwWC3U-Aos0IUR1-9" style="edgeStyle=none;curved=1;rounded=0;orthogonalLoop=1;jettySize=auto;html=1;exitX=0.5;exitY=1;exitDx=0;exitDy=0;entryX=0.5;entryY=0;entryDx=0;entryDy=0;fontSize=12;startSize=8;endSize=8;" edge="1" parent="1" source="OhggnpwWC3U-Aos0IUR1-3" target="OhggnpwWC3U-Aos0IUR1-4">
          <mxGeometry relative="1" as="geometry" />
        </mxCell>
        <mxCell id="OhggnpwWC3U-Aos0IUR1-3" value="&lt;i&gt;SMOTE&lt;/i&gt;" style="shape=parallelogram;html=1;strokeWidth=2;perimeter=parallelogramPerimeter;whiteSpace=wrap;rounded=1;arcSize=12;size=0.23;" vertex="1" parent="1">
          <mxGeometry x="71.5" y="55" width="109" height="60" as="geometry" />
        </mxCell>
        <mxCell id="OhggnpwWC3U-Aos0IUR1-10" style="edgeStyle=none;curved=1;rounded=0;orthogonalLoop=1;jettySize=auto;html=1;exitX=0.5;exitY=1;exitDx=0;exitDy=0;entryX=0.5;entryY=0;entryDx=0;entryDy=0;fontSize=12;startSize=8;endSize=8;" edge="1" parent="1" source="OhggnpwWC3U-Aos0IUR1-4" target="OhggnpwWC3U-Aos0IUR1-5">
          <mxGeometry relative="1" as="geometry" />
        </mxCell>
        <mxCell id="OhggnpwWC3U-Aos0IUR1-4" value="&lt;i&gt;Data Split&lt;/i&gt;" style="rounded=1;whiteSpace=wrap;html=1;absoluteArcSize=1;arcSize=14;strokeWidth=2;" vertex="1" parent="1">
          <mxGeometry x="76" y="143" width="100" height="56" as="geometry" />
        </mxCell>
        <mxCell id="OhggnpwWC3U-Aos0IUR1-11" style="edgeStyle=none;curved=1;rounded=0;orthogonalLoop=1;jettySize=auto;html=1;exitX=0.5;exitY=1;exitDx=0;exitDy=0;entryX=0.5;entryY=0;entryDx=0;entryDy=0;fontSize=12;startSize=8;endSize=8;" edge="1" parent="1" source="OhggnpwWC3U-Aos0IUR1-5" target="OhggnpwWC3U-Aos0IUR1-7">
          <mxGeometry relative="1" as="geometry" />
        </mxCell>
        <mxCell id="OhggnpwWC3U-Aos0IUR1-5" value="Penentuan parameter" style="rounded=1;whiteSpace=wrap;html=1;absoluteArcSize=1;arcSize=14;strokeWidth=2;" vertex="1" parent="1">
          <mxGeometry x="76" y="225" width="100" height="56" as="geometry" />
        </mxCell>
        <mxCell id="OhggnpwWC3U-Aos0IUR1-6" value="Model &lt;i&gt;KNN&lt;/i&gt;" style="shape=parallelogram;html=1;strokeWidth=2;perimeter=parallelogramPerimeter;whiteSpace=wrap;rounded=1;arcSize=12;size=0.23;" vertex="1" parent="1">
          <mxGeometry x="71.5" y="400" width="109" height="60" as="geometry" />
        </mxCell>
        <mxCell id="OhggnpwWC3U-Aos0IUR1-12" style="edgeStyle=none;curved=1;rounded=0;orthogonalLoop=1;jettySize=auto;html=1;exitX=0.5;exitY=1;exitDx=0;exitDy=0;entryX=0.5;entryY=0;entryDx=0;entryDy=0;fontSize=12;startSize=8;endSize=8;" edge="1" parent="1" source="OhggnpwWC3U-Aos0IUR1-7" target="OhggnpwWC3U-Aos0IUR1-6">
          <mxGeometry relative="1" as="geometry" />
        </mxCell>
        <mxCell id="OhggnpwWC3U-Aos0IUR1-7" value="&lt;i&gt;Train&lt;/i&gt;" style="rounded=1;whiteSpace=wrap;html=1;absoluteArcSize=1;arcSize=14;strokeWidth=2;" vertex="1" parent="1">
          <mxGeometry x="76" y="309" width="100" height="56" as="geometry" />
        </mxCell>
        <mxCell id="OhggnpwWC3U-Aos0IUR1-13" style="edgeStyle=none;curved=1;rounded=0;orthogonalLoop=1;jettySize=auto;html=1;exitX=0.5;exitY=1;exitDx=0;exitDy=0;entryX=0.5;entryY=0;entryDx=0;entryDy=0;entryPerimeter=0;fontSize=12;startSize=8;endSize=8;" edge="1" parent="1" source="OhggnpwWC3U-Aos0IUR1-6" target="OhggnpwWC3U-Aos0IUR1-2">
          <mxGeometry relative="1" as="geometry" />
        </mxCell>
      </root>
    </mxGraphModel>
  </diagram>
</mxfile>
